<?xml version="1.0" standalone="no"?><!DOCTYPE svg PUBLIC "-//W3C//DTD SVG 1.1//EN" "http://www.w3.org/Graphics/SVG/1.1/DTD/svg11.dtd"><svg class="icon" width="200px" height="200.00px" viewBox="0 0 1024 1024" version="1.1" xmlns="http://www.w3.org/2000/svg"><path d="M754.688 692.224c107.52 335.872 16.384 405.504-272.384 207.872-277.504 200.704-372.736 133.12-283.648-204.8-279.552-209.92-247.808-321.536 96.256-333.824 105.472-331.776 220.16-331.776 344.064-2.048 344.064 7.168 382.976 117.76 115.712 332.8z" fill="#90E9FF" /><path d="M320.512 936.96c-20.48 0-37.888-5.12-52.224-14.336-54.272-36.864-58.368-139.264-14.336-311.296C111.616 501.76 52.224 417.792 72.704 356.352c19.456-61.44 112.64-94.208 284.672-101.376C411.648 88.064 468.992 7.168 532.48 5.12c64.512-2.048 126.976 78.848 191.488 247.808 175.104 4.096 270.336 36.864 290.816 98.304 21.504 61.44-33.792 145.408-167.936 254.976 53.248 171.008 54.272 273.408 3.072 311.296-51.2 37.888-147.456 8.192-292.864-90.112C453.632 901.12 375.808 936.96 320.512 936.96z m214.016-901.12h-1.024c-33.792 1.024-87.04 43.008-149.504 238.592l-3.072 10.24h-11.264c-201.728 7.168-257.024 47.104-267.264 79.872-10.24 33.792 12.288 100.352 179.2 227.328l8.192 6.144-3.072 10.24c-53.248 201.728-29.696 268.288 0 288.768 28.672 19.456 97.28 18.432 261.12-100.352l9.216-6.144 9.216 6.144c171.008 116.736 239.616 116.736 266.24 96.256 27.648-20.48 47.104-87.04-17.408-287.744l-3.072-10.24 8.192-6.144c158.72-128 178.176-194.56 166.912-227.328-11.264-33.792-68.608-73.728-273.408-77.824h-10.24l-4.096-10.24C624.64 77.824 568.32 35.84 534.528 35.84z" fill="#489EFF" /><path d="M602.112 578.56c0 3.072 1.024 6.144 1.024 9.216 0 43.008-30.72 77.824-69.632 77.824s-69.632-34.816-69.632-77.824c0-3.072 0-6.144 1.024-9.216h137.216zM663.552 420.864c23.552 0 44.032 19.456 44.032 44.032 0 23.552-19.456 44.032-44.032 44.032s-44.032-19.456-44.032-44.032c1.024-24.576 20.48-44.032 44.032-44.032zM385.024 420.864c23.552 0 44.032 19.456 44.032 44.032 0 23.552-19.456 44.032-44.032 44.032s-44.032-19.456-44.032-44.032 19.456-44.032 44.032-44.032z" fill="#489EFF" /></svg>