<?xml version="1.0" standalone="no"?><!DOCTYPE svg PUBLIC "-//W3C//DTD SVG 1.1//EN" "http://www.w3.org/Graphics/SVG/1.1/DTD/svg11.dtd"><svg class="icon" width="200px" height="199.42px" viewBox="0 0 1027 1024" version="1.1" xmlns="http://www.w3.org/2000/svg"><path fill="#f94b35" d="M950.806831 1023.936008h-877.604899a70.208392 70.208392 0 0 1-73.133742-73.133742v-877.604898a70.208392 70.208392 0 0 1 73.133742-73.133742h877.604899a70.208392 70.208392 0 0 1 73.133741 73.133742v877.604898a70.208392 70.208392 0 0 1-73.133741 73.133742z m-877.604899-987.305511a33.641521 33.641521 0 0 0-36.566871 36.566871v877.604898a33.641521 33.641521 0 0 0 36.566871 36.566871h877.604899a33.641521 33.641521 0 0 0 36.56687-36.566871v-877.604898a33.641521 33.641521 0 0 0-36.56687-36.566871z"  /><path fill="#f94b35" d="M409.251474 235.554274c-4.388024 8.044712-4.388024 8.044712-27.790821 58.506993a1023.872382 1023.872382 0 0 1-63.626355 121.402011 287.781273 287.781273 0 0 1 46.074257 69.477055 233.662304 233.662304 0 0 1 24.865472 100.193226 81.178453 81.178453 0 0 1-29.984834 73.133741 118.476661 118.476661 0 0 1-60.701006 10.970061 334.586868 334.586868 0 0 1-34.372858 0 134.931753 134.931753 0 0 0-9.507387-44.611582 204.043139 204.043139 0 0 0 44.611583 4.388025c21.208785 0 32.178846-2.92535 36.56687-10.238724a77.521766 77.521766 0 0 0 8.044712-40.223558 209.893838 209.893838 0 0 0-32.178846-106.043925 344.459923 344.459923 0 0 0-42.41757-53.387632 751.449194 751.449194 0 0 0 82.641128-168.207605H237.387182v527.294276a589.823626 589.823626 0 0 0 3.656687 68.01438H187.656238a475.36932 475.36932 0 0 0 4.388024-68.01438V263.345096c0-19.74611 0-36.566871-2.194012-55.581644a126.887042 126.887042 0 0 0 21.208785 0h127.618379a225.617593 225.617593 0 0 0 45.34292-2.925349z m357.623997 25.59681a615.420435 615.420435 0 0 1-122.864686 130.909397 572.637196 572.637196 0 0 0 192.34174 76.790429 155.409201 155.409201 0 0 0-21.940122 40.954895 666.248385 666.248385 0 0 1-204.043139-92.148514 741.576139 741.576139 0 0 1-203.311802 99.461888 155.043532 155.043532 0 0 0-27.059484-39.49222 653.815649 653.815649 0 0 0 195.998427-85.566478 526.19727 526.19727 0 0 1-78.984441-81.178453 468.055946 468.055946 0 0 1-92.148514 76.059091 118.84233 118.84233 0 0 0-30.716172-32.910184 392.362523 392.362523 0 0 0 149.192833-141.148121 225.617593 225.617593 0 0 0 20.477448-39.49222l46.805594 12.432736c-13.895411 23.402797-24.865472 40.223558-32.910183 51.924956h131.640735a319.594451 319.594451 0 0 0 51.924956-2.925349z m-300.579678 470.249958c-4.388024 0-55.581644 2.92535-70.939729 4.388024a980.357805 980.357805 0 0 0 46.074257-138.222771l45.342919 10.970061c-12.432736 32.910184-16.820761 44.611582-29.984834 82.641128h141.148122v-106.043925h-125.058698a329.101837 329.101837 0 0 0-59.238331 3.656687v-47.536932a302.77369 302.77369 0 0 0 58.506993 3.656687h125.790036v-13.164074a375.907432 375.907432 0 0 0-3.656687-56.312981h50.462281a346.653935 346.653935 0 0 0-3.656687 56.312981v13.164074h90.320171a351.041959 351.041959 0 0 0 62.895018-3.656687v47.536932a371.885076 371.885076 0 0 0-62.895018-3.656687h-90.320171v109.700612h118.476661a432.95175 432.95175 0 0 0 60.701006-3.656687v46.805595a412.474302 412.474302 0 0 0-65.820367-3.656688h-113.3573v54.850307a390.899849 390.899849 0 0 0 4.388025 62.895017h-51.924957a397.481885 397.481885 0 0 0 4.388025-62.895017v-57.775656z m62.16368-456.354547a20.111779 20.111779 0 0 0-3.656687 4.388024 417.593664 417.593664 0 0 0 84.83514 87.029152 496.212436 496.212436 0 0 0 92.148515-91.417176z"  /></svg>