<?xml version="1.0" standalone="no"?><!DOCTYPE svg PUBLIC "-//W3C//DTD SVG 1.1//EN" "http://www.w3.org/Graphics/SVG/1.1/DTD/svg11.dtd"><svg class="icon" width="200px" height="200.00px" viewBox="0 0 1024 1024" version="1.1" xmlns="http://www.w3.org/2000/svg"><path d="M0 0h1024v1024H0z" fill="#ff5000" /><path d="M310.857143 307.2V226.742857h62.171428v76.8h76.8V365.714286h-76.8v84.114285c21.942857-7.314286 47.542857-14.628571 69.485715-21.942857v58.514286c-21.942857 7.314286-47.542857 14.628571-69.485715 18.285714v95.085715c0 43.885714-21.942857 65.828571-62.171428 65.828571H248.685714l-14.628571-58.514286c18.285714 3.657143 36.571429 3.657143 54.857143 3.657143 14.628571 0 18.285714-7.314286 18.285714-25.6v-62.171428c-29.257143 7.314286-58.514286 14.628571-91.428571 18.285714l-14.628572-58.514286c36.571429-3.657143 69.485714-10.971429 106.057143-18.285714V365.714286H223.085714V307.2h87.771429z m32.914286 402.285714C318.171429 760.685714 292.571429 804.571429 259.657143 841.142857l-51.2-36.571428c29.257143-32.914286 58.514286-73.142857 80.457143-117.028572l54.857143 21.942857z m138.971428 113.371429l-62.171428 14.628571c-7.314286-47.542857-18.285714-87.771429-32.914286-124.342857l58.514286-10.971428c14.628571 36.571429 25.6 76.8 36.571428 120.685714z m230.4-182.857143c-29.257143-32.914286-40.228571-98.742857-40.228571-197.485714v-69.485715h-73.142857c0 47.542857-7.314286 87.771429-18.285715 128 29.257143 21.942857 54.857143 43.885714 80.457143 69.485715l-36.571428 54.857143c-21.942857-21.942857-43.885714-43.885714-65.828572-62.171429-21.942857 47.542857-51.2 84.114286-91.428571 117.028571l-47.542857-40.228571c40.228571-29.257143 69.485714-69.485714 87.771428-117.028571-18.285714-14.628571-40.228571-25.6-58.514286-36.571429l32.914286-47.542857c14.628571 7.314286 29.257143 18.285714 43.885714 25.6l10.971429-87.771429h-69.485714V307.2h69.485714V226.742857h62.171429v80.457143H731.428571V438.857143c0 69.485714 3.657143 120.685714 14.628572 146.285714 3.657143 10.971429 7.314286 18.285714 10.971428 18.285714 3.657143 0 7.314286-10.971429 10.971429-25.6 3.657143-18.285714 3.657143-40.228571 3.657143-62.171428l47.542857 21.942857c-3.657143 58.514286-10.971429 95.085714-21.942857 109.714286-7.314286 10.971429-18.285714 18.285714-29.257143 18.285714-21.942857 0-40.228571-7.314286-54.857143-25.6z m-80.457143 182.857143l-62.171428 14.628571c-10.971429-51.2-29.257143-95.085714-47.542857-131.657143L585.142857 694.857143c18.285714 36.571429 32.914286 80.457143 47.542857 128z m168.228572-21.942857l-51.2 36.571428c-21.942857-40.228571-51.2-84.114286-87.771429-131.657143l51.2-32.914285c36.571429 51.2 65.828571 91.428571 87.771429 128z" fill="#ffffff" /></svg>