<?xml version="1.0" standalone="no"?><!DOCTYPE svg PUBLIC "-//W3C//DTD SVG 1.1//EN" "http://www.w3.org/Graphics/SVG/1.1/DTD/svg11.dtd"><svg class="icon" width="200px" height="200.00px" viewBox="0 0 1024 1024" version="1.1" xmlns="http://www.w3.org/2000/svg"><path d="M680.664 485.769V98.925h86.963c75.954 0 137.755 44.03 137.755 98.139V387.63c0 54.108-61.801 98.138-137.755 98.138h-86.963z" fill="#B0D6EE" /><path d="M827.226 485.769V98.925h50.315c44.957 0 81.511 44.03 81.511 98.139V387.63c0 54.108-36.554 98.138-81.511 98.138h-50.315z" fill="#A0D0EF" /><path d="M850.464 500.751H663.606c-68.146 0-123.58-51.545-123.58-114.896V192.112c0-63.35 55.435-114.895 123.58-114.895h186.857c68.136 0 123.561 51.545 123.561 114.895v193.743c0 63.351-55.424 114.896-123.56 114.896zM663.606 107.163c-51.634 0-93.636 38.112-93.636 84.95v193.743c0 46.837 42.002 84.952 93.636 84.952h186.857c51.621 0 93.614-38.115 93.614-84.952V192.112c0-46.837-41.993-84.95-93.614-84.95H663.606z" fill="#3184C7" /><path d="M190.604 475.787V88.944h86.968c75.954 0 137.744 44.029 137.744 98.139v190.566c0 54.109-61.79 98.139-137.744 98.139h-86.968z" fill="#B0D6EE" /><path d="M337.169 475.787V88.944h50.317c44.946 0 81.509 44.029 81.509 98.139v190.566c0 54.109-36.563 98.139-81.509 98.139h-50.317z" fill="#A0D0EF" /><path d="M360.398 490.769H173.546c-68.136 0-123.57-51.545-123.57-114.895V182.131c0-63.35 55.435-114.895 123.57-114.895h186.853c68.136 0 123.569 51.545 123.569 114.895v193.742c0 63.351-55.434 114.896-123.57 114.896zM173.546 97.181c-51.623 0-93.626 38.113-93.626 84.951v193.742c0 46.838 42.003 84.952 93.626 84.952h186.853c51.622 0 93.625-38.113 93.625-84.952V182.131c0-46.837-42.003-84.951-93.625-84.951H173.546z" fill="#3184C7" /><path d="M680.664 941.381V554.52h86.963c75.954 0 137.755 44.028 137.755 98.148v190.564c0 54.119-61.801 98.148-137.755 98.148h-86.963z" fill="#B0D6EE" /><path d="M827.226 941.381V554.52h50.315c44.957 0 81.511 44.028 81.511 98.148v190.564c0 54.119-36.554 98.148-81.511 98.148h-50.315z" fill="#A0D0EF" /><path d="M850.464 956.354H663.606c-68.146 0-123.58-51.546-123.58-114.896V647.716c0-63.351 55.435-114.896 123.58-114.896h186.857c68.136 0 123.561 51.545 123.561 114.896v193.743c0 63.35-55.424 114.895-123.56 114.895zM663.606 562.765c-51.634 0-93.636 38.114-93.636 84.951v193.743c0 46.838 42.002 84.95 93.636 84.95h186.857c51.621 0 93.614-38.112 93.614-84.95V647.716c0-46.837-41.993-84.951-93.614-84.951H663.606z" fill="#3184C7" /><path d="M182.962 956.764c-9.777 0-17.73-6.794-17.73-15.14 0-7.914 6.9-14.426 15.674-15.098l10.187 0.049h192.242c45.794 0 83.049-34.74 83.049-77.454V641.292c0-42.715-37.304-77.454-83.166-77.454H182.396c-45.842 0-83.136 34.739-83.136 77.454v207.927c0 8.344-7.701 15.138-17.166 15.138-9.455 0-17.146-6.794-17.146-15.138V641.174c0-59.342 52.638-107.631 117.332-107.631h201.055c64.704 0 117.342 48.338 117.342 107.749v207.711c0 59.422-52.638 107.761-117.342 107.761H182.962z" fill="#3184C7" /></svg>