<?xml version="1.0" standalone="no"?><!DOCTYPE svg PUBLIC "-//W3C//DTD SVG 1.1//EN" "http://www.w3.org/Graphics/SVG/1.1/DTD/svg11.dtd"><svg class="icon" width="200px" height="200.00px" viewBox="0 0 1024 1024" version="1.1" xmlns="http://www.w3.org/2000/svg"><path d="M149.677419 528.516129a397.935484 397.419355 0 1 0 795.870968 0 397.935484 397.419355 0 1 0-795.870968 0Z" fill="#FFF2C3" /><path d="M74.322581 460.387097a390.709677 390.709677 0 1 0 781.419354 0 390.709677 390.709677 0 1 0-781.419354 0Z" fill="#E1EEE3" /><path d="M583.225806 663.225806h80.516129v-39.741935h-80.516129v39.741935z m141.935484-39.225806v39.741935H986.83871v-39.741935h-261.67742zM583.225806 825.290323h80.516129v-39.741936h-80.516129v39.741936z m141.935484-39.741936v39.741936H986.83871v-39.741936h-261.67742zM583.225806 986.83871h80.516129v-39.741936h-80.516129v39.741936z m141.935484-39.741936v39.741936H986.83871v-39.741936h-261.67742zM499.612903 37.16129c-165.16129 0-302.451613 82.064516-387.612903 230.709678l-6.193548 10.32258-68.645162-65.548387v147.612904h150.193549l-43.870968-47.483871 3.096774-6.193549c59.870968-112 183.741935-231.225806 353.032258-231.225806 110.967742 0 208 38.709677 280.774194 111.483871 77.935484 78.451613 121.806452 189.419355 123.354838 314.32258h41.290323c-2.064516-137.806452-46.451613-254.451613-129.548387-338.580645-80-81.032258-192.516129-125.419355-315.870968-125.419355z" fill="#009042" /><path d="M475.354839 278.709677v261.67742l-130.580645 112 26.838709 27.354838 151.741936-132.129032v-268.903226zM452.129032 944.516129c4.129032 0.516129 35.096774 0.516129 50.064516 0.516129v-41.290323c-17.032258 1.032258-34.580645 0.516129-51.612903-0.516129h-0.516129c-155.870968-18.580645-272.516129-113.032258-346.322581-282.32258h-42.838709c56.774194 182.709677 205.419355 306.064516 391.225806 323.612903z" fill="#009042" /></svg>