<?xml version="1.0" standalone="no"?><!DOCTYPE svg PUBLIC "-//W3C//DTD SVG 1.1//EN" "http://www.w3.org/Graphics/SVG/1.1/DTD/svg11.dtd"><svg class="icon" width="200px" height="185.17px" viewBox="0 0 1106 1024" version="1.1" xmlns="http://www.w3.org/2000/svg"><path d="M1082.975647 593.697067l-153.542345-77.794788c-10.236156-5.118078-18.425081-15.354234-21.495929-26.614007l-10.236156-36.850163c-3.070847-11.259772-1.023616-23.54316 5.118078-33.779315l94.172638-144.329805c10.236156-16.37785 8.188925-37.873778-5.118078-52.204397L948.881999 179.132736c-14.330619-14.330619-35.826547-16.37785-52.204398-5.118079l-144.329804 94.172639c-10.236156 6.141694-22.519544 8.188925-33.779316 5.118078l-36.850162-10.236156c-11.259772-3.070847-21.495928-11.259772-26.614007-21.495929l-77.794788-153.542345C568.096983 70.629479 548.648286 61.416938 529.199589 66.535016L470.853498 81.889251c-19.448697 5.118078-31.732085 22.519544-30.708469 41.968241l10.236157 172.991041c1.023616 12.283388-4.094463 23.54316-12.283388 31.732085l-26.614006 26.614006c-8.188925 8.188925-19.448697 12.283388-31.732085 12.283388L207.784281 358.265471c-19.448697-1.023616-36.850163 12.283388-41.968241 30.708469L150.461805 447.320031c-5.118078 19.448697 4.094463 38.897394 21.495929 48.109935l153.542345 77.794788c10.236156 5.118078 18.425081 15.354234 21.495928 26.614007l10.236156 36.850162c3.070847 11.259772 1.023616 23.54316-5.118078 33.779316l-94.172638 144.329804c-10.236156 16.37785-8.188925 37.873778 5.118078 52.204398l42.991857 42.991856c14.330619 14.330619 35.826547 16.37785 52.204397 5.118078l144.329804-94.172638c10.236156-6.141694 22.519544-8.188925 33.779316-5.118078l36.850163 10.236156c11.259772 3.070847 21.495928 11.259772 26.614006 21.495929l77.794788 153.542344c9.212541 17.401466 28.661238 26.614006 48.109935 21.495929l58.346091-15.354235c19.448697-5.118078 31.732085-22.519544 30.708469-41.968241L805.57581 793.302115c-1.023616-12.283388 4.094463-23.54316 12.283388-31.732085l26.614006-26.614006c8.188925-8.188925 19.448697-12.283388 31.732085-12.283388l171.967426 9.212541c19.448697 1.023616 36.850163-12.283388 41.968241-30.708469l15.354234-58.346091c4.094463-20.472313-5.118078-40.944625-22.519543-49.13355z m-455.508957 78.818403c-70.629479 0-127.951954-57.322475-127.951954-127.951954s57.322475-127.951954 127.951954-127.951954S754.395029 473.934038 754.395029 544.563516s-57.322475 127.951954-126.928339 127.951954z" fill="#FAAFB1" /><path d="M951.952846 544.563516l-153.542345-77.794788c-10.236156-5.118078-18.425081-15.354234-21.495929-26.614006l-10.236156-36.850163c-3.070847-11.259772-1.023616-23.54316 5.118078-33.779316L865.969132 225.195439c10.236156-16.37785 8.188925-37.873778-5.118078-52.204397l-42.991856-42.991857c-14.330619-14.330619-35.826547-16.37785-52.204397-5.118078L621.324996 219.053745c-10.236156 6.141694-22.519544 8.188925-33.779316 5.118078l-36.850162-10.236156c-11.259772-3.070847-21.495928-11.259772-26.614007-21.495928L447.310339 38.897394c-9.212541-17.401466-28.661238-26.614006-48.109935-21.495928l-58.346091 15.354234c-19.448697 5.118078-31.732085 22.519544-30.708469 41.968241l9.212541 171.967426c1.023616 12.283388-4.094463 23.54316-12.283388 31.732085l-26.614006 26.614006c-8.188925 8.188925-19.448697 12.283388-31.732085 12.283388l-172.991042-8.188925c-19.448697-1.023616-36.850163 12.283388-41.968241 30.708469L18.415389 399.210097c-5.118078 19.448697 4.094463 38.897394 21.495928 48.109934l153.542345 77.794788c10.236156 5.118078 18.425081 15.354234 21.495928 26.614007l10.236157 36.850163c3.070847 11.259772 1.023616 23.54316-5.118079 33.779315l-95.196253 143.306189c-10.236156 16.37785-8.188925 37.873778 5.118078 52.204397l42.991856 42.991857c14.330619 14.330619 35.826547 16.37785 52.204398 5.118078l144.329804-94.172638c10.236156-6.141694 22.519544-8.188925 33.779316-5.118078l36.850162 10.236156c11.259772 3.070847 21.495928 11.259772 26.614007 21.495928l77.794788 153.542345c9.212541 17.401466 28.661238 26.614006 48.109935 21.495928l58.346091-15.354234c19.448697-5.118078 31.732085-22.519544 30.708469-41.968241L672.505778 743.144949c-1.023616-12.283388 4.094463-23.54316 12.283388-31.732085l26.614006-26.614006c8.188925-8.188925 19.448697-12.283388 31.732085-12.283388l171.967426 9.212541c19.448697 1.023616 36.850163-12.283388 41.968241-30.708469l15.354234-58.346091c6.141694-19.448697-3.070847-39.92101-20.472312-48.109935z m-456.532572 78.818404c-70.629479 0-127.951954-57.322475-127.951954-127.951954s57.322475-127.951954 127.951954-127.951954 127.951954 57.322475 127.951954 127.951954-57.322475 127.951954-127.951954 127.951954z" fill="#FFFFFF" /><path d="M581.403987 990.859932c-21.495928 0-41.968241-12.283388-52.204398-31.732085l-77.794788-153.542344c-3.070847-6.141694-9.212541-11.259772-16.37785-13.307004l-36.850162-10.236156c-7.165309-2.047231-14.330619-1.023616-20.472313 3.070847l-143.306189 95.196254c-22.519544 15.354234-53.228013 11.259772-72.67671-7.16531L118.729721 829.128662c-19.448697-19.448697-22.519544-50.157166-7.16531-72.67671l94.172639-144.329804c4.094463-6.141694 5.118078-13.307003 3.070847-20.472313l-10.236157-36.850162c-2.047231-7.165309-6.141694-12.283388-13.307003-16.37785L31.722392 460.627035c-24.566775-12.283388-36.850163-40.944625-29.684853-66.535017l15.354234-58.346091c7.165309-26.614006 31.732085-44.015472 59.369707-42.991856l171.967426 9.212541c7.165309 0 14.330619-2.047231 19.448697-7.16531l26.614007-26.614006c5.118078-5.118078 8.188925-12.283388 7.165309-19.448697L293.767994 76.771172c-1.023616-27.637622 16.37785-52.204397 42.991857-59.369706L395.105942 2.047231c26.614006-7.165309 54.251629 5.118078 66.535016 29.684854l77.794788 153.542344c3.070847 6.141694 9.212541 11.259772 16.37785 13.307004l36.850163 10.236156c7.165309 2.047231 14.330619 1.023616 20.472312-3.070847l144.329804-94.172638c22.519544-15.354234 53.228013-11.259772 72.67671 7.165309l42.991857 42.991857c19.448697 19.448697 22.519544 50.157166 7.165309 72.67671L786.127113 378.737784c-4.094463 6.141694-5.118078 13.307003-3.070847 20.472313l10.236157 36.850162c2.047231 7.165309 6.141694 12.283388 13.307003 16.37785l153.542345 77.794789c24.566775 12.283388 36.850163 40.944625 29.684853 66.535016L973.448774 655.114005c-7.165309 26.614006-32.7557 44.015472-59.369707 42.991856l-171.967426-9.21254c-7.165309 0-14.330619 2.047231-19.448697 7.165309l-26.614006 26.614006c-5.118078 5.118078-8.188925 12.283388-7.16531 19.448697l9.212541 171.967427c1.023616 27.637622-16.37785 52.204397-42.991857 59.369706l-58.346091 15.354235c-5.118078 1.023616-10.236156 2.047231-15.354234 2.047231zM392.035095 749.286643c5.118078 0 10.236156 1.023616 15.354234 2.047231l36.850163 10.236156c16.37785 4.094463 29.684853 15.354234 36.850163 29.684854l77.794788 153.542345c5.118078 10.236156 17.401466 16.37785 28.661237 13.307003l58.346092-15.354235c11.259772-3.070847 19.448697-14.330619 18.425081-25.59039l-9.212541-171.967427c-1.023616-16.37785 5.118078-32.7557 17.401466-44.015472l26.614006-26.614006c11.259772-11.259772 27.637622-17.401466 44.015473-17.401466l172.991041 8.188925c11.259772 0 22.519544-7.165309 25.590391-18.425081l15.354235-58.346091c3.070847-11.259772-2.047231-23.54316-13.307003-28.661238l-153.542345-77.794788c-14.330619-7.165309-25.590391-20.472313-29.684854-36.850163l-10.236156-36.850163c-4.094463-16.37785-2.047231-32.7557 7.165309-47.086319l94.172639-144.329804c6.141694-10.236156 5.118078-23.54316-3.070847-31.732085L805.57581 142.282573c-8.188925-8.188925-21.495928-10.236156-31.732084-3.070847l-144.329805 94.172638c-13.307003 9.212541-30.708469 11.259772-47.086319 7.16531l-36.850162-10.236157c-16.37785-4.094463-29.684853-15.354234-36.850163-29.684853l-77.794788-153.542345c-5.118078-10.236156-17.401466-16.37785-28.661238-13.307003L344.948776 49.13355c-11.259772 3.070847-19.448697 14.330619-18.425082 25.590391l9.212541 171.967426c1.023616 16.37785-5.118078 32.7557-17.401466 44.015473L291.720763 317.320846c-11.259772 11.259772-27.637622 17.401466-44.015472 17.401466l-171.967427-9.212541c-12.283388-1.023616-22.519544 7.165309-25.59039 18.425081L34.793239 402.280944c-3.070847 11.259772 2.047231 23.54316 13.307003 28.661237l153.542345 77.794788c14.330619 7.165309 25.590391 20.472313 29.684853 36.850163l10.236157 36.850163c4.094463 16.37785 2.047231 32.7557-7.16531 47.086319L140.225649 773.853418c-6.141694 10.236156-5.118078 23.54316 3.070847 31.732085l42.991857 42.991856c8.188925 8.188925 21.495928 10.236156 31.732084 3.070847L362.350241 757.475568c8.188925-5.118078 18.425081-8.188925 29.684854-8.188925z m103.385179-109.526873c-79.842019 0-144.329804-64.487785-144.329805-144.329804S416.60187 351.100162 495.420274 351.100162c79.842019 0 144.329804 64.487785 144.329804 144.329804s-64.487785 144.329804-144.329804 144.329804z m0-255.903908c-61.416938 0-111.574104 50.157166-111.574104 111.574104s50.157166 111.574104 111.574104 111.574104 111.574104-50.157166 111.574103-111.574104-50.157166-111.574104-111.574103-111.574104z"  /></svg>